<svg xmlns="http://www.w3.org/2000/svg" viewBox="0 0 100 100" fill="none">
  <circle cx="50" cy="50" r="48" fill="#FFE8CC"/>
  <ellipse cx="50" cy="58" rx="30" ry="26" fill="#FF9F43"/>
  <path d="M20 38 L12 22 L28 32 Z" fill="#FF9F43"/>
  <path d="M80 38 L88 22 L72 32 Z" fill="#FF9F43"/>
  <path d="M14 20 L10 8 L22 16 Z" fill="#E88B2A"/>
  <path d="M86 20 L90 8 L78 16 Z" fill="#E88B2A"/>
  <path d="M32 38 Q50 28 68 38" stroke="#3C1E1E" stroke-width="3" fill="none"/>
  <circle cx="38" cy="52" r="5" fill="#3C1E1E"/>
  <circle cx="62" cy="52" r="5" fill="#3C1E1E"/>
  <circle cx="39" cy="51" r="1.5" fill="#FEE500"/>
  <circle cx="63" cy="51" r="1.5" fill="#FEE500"/>
  <path d="M42 66 L46 72 L54 72 L58 66 Z" fill="#3C1E1E"/>
  <path d="M44 64 Q50 68 56 64" stroke="#3C1E1E" stroke-width="2" fill="none"/>
</svg>
